<svg width="21" height="20" viewBox="0 0 21 20" fill="none" xmlns="http://www.w3.org/2000/svg">
<rect x="0.404175" width="20" height="20" rx="10" fill="#A1A1A1"/>
<path d="M10.4042 13.1587C11.1026 13.1587 11.674 12.5873 11.674 11.8889C11.674 11.1905 11.1026 10.619 10.4042 10.619C9.70578 10.619 9.13435 11.1905 9.13435 11.8889C9.13435 12.5873 9.70578 13.1587 10.4042 13.1587ZM14.2137 7.44444H13.5788V6.1746C13.5788 4.42222 12.1566 3 10.4042 3C8.65181 3 7.22959 4.42222 7.22959 6.1746V7.44444H6.59467C5.89626 7.44444 5.32483 8.01587 5.32483 8.71429V15.0635C5.32483 15.7619 5.89626 16.3333 6.59467 16.3333H14.2137C14.9121 16.3333 15.4836 15.7619 15.4836 15.0635V8.71429C15.4836 8.01587 14.9121 7.44444 14.2137 7.44444ZM8.43594 6.1746C8.43594 5.08889 9.31848 4.20635 10.4042 4.20635C11.4899 4.20635 12.3724 5.08889 12.3724 6.1746V7.44444H8.43594V6.1746ZM14.2137 15.0635H6.59467V8.71429H14.2137V15.0635Z" fill="white"/>
</svg>
