<svg width="80" height="80" viewBox="0 0 80 80" fill="none" xmlns="http://www.w3.org/2000/svg">
<rect width="80" height="80" rx="17.7778" fill="#EA6F29"/>
<path d="M13.125 67.4998V26.6666L39.7917 12.5L66.4583 26.6666V67.4998H13.125Z" fill="#FFF3E3" stroke="#FFF3E3" stroke-width="1.66666"/>
<path fill-rule="evenodd" clip-rule="evenodd" d="M13.3338 54.3921C14.2867 54.6083 15.2785 54.7225 16.2969 54.7225C21.457 54.7225 25.9324 51.7914 28.149 47.5032C30.3655 51.7913 34.8409 54.7225 40.001 54.7225C45.1607 54.7225 49.636 51.7916 51.8527 47.5038C54.0694 51.7916 58.5446 54.7225 63.7044 54.7225C64.7226 54.7225 65.7142 54.6083 66.6671 54.3922V61.1115H13.3338V54.3921Z" fill="#EA6F29"/>
<path d="M13.3338 54.3921L13.5182 53.5794L12.5004 53.3485V54.3921H13.3338ZM28.149 47.5032L28.8892 47.1206L28.149 45.6885L27.4087 47.1206L28.149 47.5032ZM51.8527 47.5038L52.5929 47.1211L51.8527 45.6892L51.1124 47.1211L51.8527 47.5038ZM66.6671 54.3922H67.5004V53.3486L66.4827 53.5795L66.6671 54.3922ZM66.6671 61.1115V61.9448H67.5004V61.1115H66.6671ZM13.3338 61.1115H12.5004V61.9448H13.3338V61.1115ZM13.1493 55.2048C14.1624 55.4347 15.216 55.5559 16.2969 55.5559V53.8892C15.341 53.8892 14.4111 53.782 13.5182 53.5794L13.1493 55.2048ZM16.2969 55.5559C21.7807 55.5559 26.5352 52.4399 28.8892 47.8859L27.4087 47.1206C25.3296 51.1428 21.1333 53.8892 16.2969 53.8892V55.5559ZM27.4087 47.8859C29.7627 52.4399 34.5173 55.5558 40.001 55.5558V53.8892C35.1646 53.8892 30.9684 51.1427 28.8892 47.1206L27.4087 47.8859ZM40.001 55.5558C45.4844 55.5558 50.2388 52.4402 52.5929 47.8865L51.1124 47.1211C49.0332 51.143 44.8371 53.8892 40.001 53.8892V55.5558ZM51.1124 47.8865C53.4666 52.4402 58.2209 55.5558 63.7044 55.5558V53.8892C58.8683 53.8892 54.6721 51.143 52.5929 47.1211L51.1124 47.8865ZM63.7044 55.5558C64.7851 55.5558 65.8385 55.4347 66.8515 55.2048L66.4827 53.5795C65.5899 53.782 64.6602 53.8892 63.7044 53.8892V55.5558ZM65.8337 54.3922V61.1115H67.5004V54.3922H65.8337ZM66.6671 60.2781H13.3338V61.9448H66.6671V60.2781ZM14.1671 61.1115V54.3921H12.5004V61.1115H14.1671Z" fill="#EA6F29"/>
<path d="M28.148 69.2595L28.148 42.593" stroke="#EA6F29" stroke-width="2.96296"/>
<path d="M51.8521 69.2595L51.8521 42.593" stroke="#EA6F29" stroke-width="2.96296"/>
</svg>
