<svg width="36" height="40" viewBox="0 0 36 40" fill="none" xmlns="http://www.w3.org/2000/svg">
<path d="M0.666504 37.2131V10.6716L17.9998 1.46326L35.3332 10.6716V37.2131H0.666504Z" fill="#636363" stroke="#636363" stroke-width="1.08333"/>
<path fill-rule="evenodd" clip-rule="evenodd" d="M0.666504 29.3549C1.28599 29.4955 1.93068 29.5697 2.59271 29.5697C5.94666 29.5697 8.85564 27.6645 10.2964 24.8773C11.7372 27.6645 14.6462 29.5697 18.0002 29.5697C21.3541 29.5697 24.263 27.6645 25.7038 24.8774C27.1447 27.6645 30.0536 29.5697 33.4075 29.5697C34.0694 29.5697 34.7139 29.4955 35.3332 29.355V33.7224H0.666504V29.3549Z" fill="white"/>
<path d="M0.666504 29.3549L0.786384 28.8266L0.124838 28.6765V29.3549H0.666504ZM10.2964 24.8773L10.7776 24.6286L10.2964 23.6978L9.81526 24.6286L10.2964 24.8773ZM25.7038 24.8774L26.185 24.6286L25.7038 23.6978L25.2227 24.6286L25.7038 24.8774ZM35.3332 29.355H35.8748V28.6766L35.2133 28.8267L35.3332 29.355ZM35.3332 33.7224V34.2641H35.8748V33.7224H35.3332ZM0.666504 33.7224H0.124838V34.2641H0.666504V33.7224ZM0.546623 29.8831C1.20518 30.0326 1.89007 30.1113 2.59271 30.1113V29.028C1.97129 29.028 1.3668 28.9584 0.786384 28.8266L0.546623 29.8831ZM2.59271 30.1113C6.15705 30.1113 9.24746 28.0861 10.7776 25.1261L9.81526 24.6286C8.46381 27.2429 5.73627 29.028 2.59271 29.028V30.1113ZM9.81526 25.1261C11.3454 28.0861 14.4358 30.1113 18.0002 30.1113V29.028C14.8566 29.028 12.1291 27.2429 10.7776 24.6286L9.81526 25.1261ZM18.0002 30.1113C21.5645 30.1113 24.6549 28.0861 26.185 25.1261L25.2227 24.6286C23.8712 27.2429 21.1437 29.028 18.0002 29.028V30.1113ZM25.2227 25.1261C26.7528 28.0861 29.8432 30.1113 33.4075 30.1113V29.028C30.264 29.028 27.5365 27.2429 26.185 24.6286L25.2227 25.1261ZM33.4075 30.1113C34.11 30.1113 34.7947 30.0326 35.453 29.8832L35.2133 28.8267C34.6331 28.9584 34.0288 29.028 33.4075 29.028V30.1113ZM34.7915 29.355V33.7224H35.8748V29.355H34.7915ZM35.3332 33.1808H0.666504V34.2641H35.3332V33.1808ZM1.20817 33.7224V29.3549H0.124838V33.7224H1.20817Z" fill="white"/>
<path d="M10.296 39.0187L10.296 21.6854" stroke="white" stroke-width="1.92592"/>
<path d="M25.7037 39.0187L25.7037 21.6854" stroke="white" stroke-width="1.92592"/>
</svg>
