<svg width="140" height="140" viewBox="0 0 140 140" fill="none" xmlns="http://www.w3.org/2000/svg">
<path d="M37.3334 90.3193V40.2986L70 22.9445L102.667 40.2986V90.3193H37.3334Z" fill="#636363" stroke="#636363" stroke-width="2.04166"/>
<path fill-rule="evenodd" clip-rule="evenodd" d="M37.3331 75.5093C38.5006 75.7743 39.7156 75.9142 40.9633 75.9142C47.2842 75.9142 52.7665 72.3237 55.4819 67.0709C58.1972 72.3236 63.6795 75.9142 70.0005 75.9142C76.3213 75.9142 81.8036 72.3237 84.519 67.071C87.2344 72.3237 92.7166 75.9142 99.0375 75.9142C100.285 75.9142 101.499 75.7744 102.666 75.5096V83.7408H37.3331V75.5093Z" fill="white"/>
<path d="M37.3331 75.5093L37.559 74.5138L36.3122 74.2309V75.5093H37.3331ZM55.4819 67.0709L56.3887 66.6021L55.4819 64.8478L54.575 66.6021L55.4819 67.0709ZM84.519 67.071L85.4258 66.6022L84.519 64.848L83.6122 66.6022L84.519 67.071ZM102.666 75.5096H103.687V74.2313L102.441 74.5141L102.666 75.5096ZM102.666 83.7408V84.7616H103.687V83.7408H102.666ZM37.3331 83.7408H36.3122V84.7616H37.3331V83.7408ZM37.1071 76.5049C38.3483 76.7865 39.6391 76.935 40.9633 76.935V74.8934C39.7921 74.8934 38.6529 74.7621 37.559 74.5138L37.1071 76.5049ZM40.9633 76.935C47.6807 76.935 53.505 73.1182 56.3887 67.5396L54.575 66.6021C52.0281 71.5291 46.8877 74.8934 40.9633 74.8934V76.935ZM54.575 67.5396C57.4588 73.1182 63.283 76.935 70.0005 76.935V74.8934C64.076 74.8934 58.9357 71.5291 56.3887 66.6021L54.575 67.5396ZM70.0005 76.935C76.7178 76.935 82.5421 73.1182 85.4258 67.5397L83.6122 66.6022C81.0652 71.5292 75.9248 74.8934 70.0005 74.8934V76.935ZM83.6122 67.5397C86.4959 73.1182 92.3201 76.935 99.0375 76.935V74.8934C93.1131 74.8934 87.9728 71.5292 85.4258 66.6022L83.6122 67.5397ZM99.0375 76.935C100.361 76.935 101.652 76.7866 102.892 76.5052L102.441 74.5141C101.347 74.7622 100.208 74.8934 99.0375 74.8934V76.935ZM101.646 75.5096V83.7408H103.687V75.5096H101.646ZM102.666 82.7199H37.3331V84.7616H102.666V82.7199ZM38.3539 83.7408V75.5093H36.3122V83.7408H38.3539Z" fill="white"/>
<path d="M55.481 93.7223L55.481 61.0557" stroke="white" stroke-width="3.62963"/>
<path d="M84.5186 93.7223L84.5186 61.0557" stroke="white" stroke-width="3.62963"/>
<path d="M29.204 104.003V115.217H30.674V110.443H36.428V109.127L30.674 109.141V105.319H37.044V104.003H29.204ZM41.8225 115.413C43.2785 115.413 44.2585 114.713 44.6645 114.027V115.217H46.1065V107.209H44.6645V108.399C44.2585 107.713 43.2785 107.013 41.8225 107.013C39.5545 107.013 37.8605 108.819 37.8605 111.213C37.8605 113.607 39.5545 115.413 41.8225 115.413ZM41.9485 114.139C40.3385 114.139 39.2745 112.879 39.2745 111.213C39.2745 109.547 40.3385 108.287 41.9485 108.287C43.5725 108.287 44.6925 109.547 44.6925 111.213C44.6925 112.879 43.5725 114.139 41.9485 114.139ZM48.3703 107.209V115.217H49.8123V110.891C49.8123 109.449 50.6943 108.273 51.8843 108.273C53.0043 108.273 53.7183 109.141 53.7183 110.639V115.217H55.1603V110.905C55.1603 109.449 56.0283 108.273 57.2323 108.273C58.3663 108.273 59.0663 109.141 59.0663 110.583V115.217H60.5083V110.345C60.5083 108.315 59.2763 107.013 57.5683 107.013C56.2103 107.013 55.2023 107.685 54.7263 108.693C54.3343 107.671 53.4243 107.013 52.2343 107.013C50.8903 107.013 50.1763 107.755 49.8123 108.343V107.209H48.3703ZM66.8457 115.413C69.1137 115.413 70.8077 113.607 70.8077 111.213C70.8077 108.819 69.1137 107.013 66.8457 107.013C65.3897 107.013 64.4097 107.713 64.0037 108.399V103.653H62.5617V115.217H64.0037V114.027C64.4097 114.713 65.3897 115.413 66.8457 115.413ZM66.7197 114.139C65.0957 114.139 63.9757 112.879 63.9757 111.213C63.9757 109.547 65.0957 108.287 66.7197 108.287C68.3297 108.287 69.3937 109.547 69.3937 111.213C69.3937 112.879 68.3297 114.139 66.7197 114.139ZM72.6516 107.209V115.217H74.0936V111.073C74.0936 109.617 75.2416 108.301 76.8796 108.301C77.3696 108.301 77.7616 108.385 78.0696 108.525V107.153C77.7896 107.055 77.4676 107.013 76.9776 107.013C75.4096 107.013 74.4436 107.839 74.0936 108.441V107.209H72.6516ZM80.2152 103.513C79.6692 103.513 79.2632 103.919 79.2632 104.465C79.2632 105.011 79.6692 105.417 80.2152 105.417C80.7752 105.417 81.1812 105.011 81.1812 104.465C81.1812 103.919 80.7752 103.513 80.2152 103.513ZM80.9432 115.231V107.209H79.5012V115.231H80.9432ZM86.7483 115.413C88.2043 115.413 89.1843 114.713 89.5903 114.027V115.217H91.0323V103.653H89.5903V108.399C89.1843 107.713 88.2043 107.013 86.7483 107.013C84.4803 107.013 82.7863 108.819 82.7863 111.213C82.7863 113.607 84.4803 115.413 86.7483 115.413ZM86.8743 114.139C85.2643 114.139 84.2003 112.879 84.2003 111.213C84.2003 109.547 85.2643 108.287 86.8743 108.287C88.4983 108.287 89.6183 109.547 89.6183 111.213C89.6183 112.879 88.4983 114.139 86.8743 114.139ZM97.2161 118.815C99.5121 118.815 101.122 117.247 101.122 115.035V107.209H99.6801V108.399C99.2741 107.713 98.2941 107.013 96.8381 107.013C94.5701 107.013 92.8761 108.805 92.8761 111.171C92.8761 113.523 94.5701 115.301 96.8381 115.301C98.2941 115.301 99.2741 114.601 99.6801 113.915V115.021C99.6801 116.589 98.6721 117.569 97.2161 117.569C95.7741 117.569 95.0601 116.827 94.8921 115.973H93.4221C93.7021 117.485 94.9201 118.815 97.2161 118.815ZM96.9641 114.055C95.3541 114.055 94.2901 112.809 94.2901 111.171C94.2901 109.533 95.3541 108.287 96.9641 108.287C98.5881 108.287 99.7081 109.533 99.7081 111.171C99.7081 112.809 98.5881 114.055 96.9641 114.055ZM106.984 115.413C108.818 115.413 110.26 114.419 110.694 113.033H109.224C108.93 113.691 108.076 114.195 106.984 114.195C105.556 114.195 104.562 113.173 104.408 111.801H110.96C110.988 111.605 110.988 111.395 110.988 111.213C110.988 108.805 109.322 107.013 106.984 107.013C104.646 107.013 102.966 108.805 102.966 111.213C102.966 113.621 104.646 115.413 106.984 115.413ZM109.574 110.625H104.408C104.562 109.239 105.542 108.231 106.984 108.231C108.426 108.231 109.406 109.225 109.574 110.625Z" fill="#636363"/>
</svg>