<svg width="35" height="38" viewBox="0 0 35 38" fill="none" xmlns="http://www.w3.org/2000/svg">
<path d="M0.235596 36.3334V9.7918L17.5689 0.583496L34.9023 9.7918V36.3334H0.235596Z" fill="#EA6F29"/>
<path fill-rule="evenodd" clip-rule="evenodd" d="M0.235651 28.4751C0.855135 28.6157 1.49983 28.69 2.16185 28.69C5.51581 28.69 8.42478 26.7848 9.86558 23.9976C11.3064 26.7848 14.2154 28.6899 17.5693 28.6899C20.9232 28.6899 23.8322 26.7848 25.273 23.9977C26.7138 26.7848 29.6228 28.6899 32.9767 28.6899C33.6385 28.6899 34.283 28.6158 34.9023 28.4752V32.8427H0.235651V28.4751Z" fill="white"/>
<path d="M9.86524 36.3333L9.86523 22.374" stroke="white" stroke-width="1.4" stroke-linecap="round" stroke-linejoin="round"/>
<path d="M25.2728 36.3333L25.2728 22.374" stroke="white" stroke-width="1.4" stroke-linecap="round" stroke-linejoin="round"/>
</svg>
