<svg width="13" height="13" viewBox="0 0 13 13" fill="none" xmlns="http://www.w3.org/2000/svg">
<path d="M5.89963 3.05493H7.09963V4.25493H5.89963V3.05493ZM5.89963 5.45493H7.09963V9.05493H5.89963V5.45493ZM6.49963 0.0549316C3.18763 0.0549316 0.499634 2.74293 0.499634 6.05493C0.499634 9.36693 3.18763 12.0549 6.49963 12.0549C9.81163 12.0549 12.4996 9.36693 12.4996 6.05493C12.4996 2.74293 9.81163 0.0549316 6.49963 0.0549316ZM6.49963 10.8549C3.85363 10.8549 1.69963 8.70093 1.69963 6.05493C1.69963 3.40893 3.85363 1.25493 6.49963 1.25493C9.14563 1.25493 11.2996 3.40893 11.2996 6.05493C11.2996 8.70093 9.14563 10.8549 6.49963 10.8549Z" fill="#A1A1A1"/>
</svg>
