<svg width="38" height="38" viewBox="0 0 38 38" fill="none" xmlns="http://www.w3.org/2000/svg">
<rect x="0.665" y="0.665" width="36.67" height="36.67" rx="18.335" fill="#EA6F29"/>
<path d="M18.2286 25.5674L18.2276 25.5664C15.9914 23.5387 14.1932 21.9064 12.9454 20.3808C11.7058 18.8653 11.0841 17.5423 11.0841 16.1456C11.0841 13.8815 12.8532 12.1124 15.1173 12.1124C16.4029 12.1124 17.6479 12.7144 18.4576 13.6652L19.0001 14.3022L19.5426 13.6652C20.3523 12.7144 21.5973 12.1124 22.8829 12.1124C25.147 12.1124 26.9161 13.8815 26.9161 16.1456C26.9161 17.5423 26.2944 18.8654 25.0546 20.3821C23.8068 21.9087 22.0087 23.543 19.7727 25.575C19.7724 25.5752 19.7722 25.5754 19.772 25.5756L19.0019 26.2714L18.2286 25.5674Z" fill="white" stroke="white" stroke-width="1.425"/>
<rect x="0.665" y="0.665" width="36.67" height="36.67" rx="18.335" stroke="#EA6F29" stroke-width="1.33"/>
</svg>
