<svg width="25" height="24" viewBox="0 0 25 24" fill="none" xmlns="http://www.w3.org/2000/svg">
<path d="M3.27671 4.8H0.876709V21.6C0.876709 22.92 1.95671 24 3.27671 24H20.0767V21.6H3.27671V4.8ZM22.4767 0H8.07671C6.75671 0 5.67671 1.08 5.67671 2.4V16.8C5.67671 18.12 6.75671 19.2 8.07671 19.2H22.4767C23.7967 19.2 24.8767 18.12 24.8767 16.8V2.4C24.8767 1.08 23.7967 0 22.4767 0ZM21.2767 10.8H9.27671V8.4H21.2767V10.8ZM16.4767 15.6H9.27671V13.2H16.4767V15.6ZM21.2767 6H9.27671V3.6H21.2767V6Z" fill="#EA6F29"/>
</svg>
