<svg width="10" height="13" viewBox="0 0 10 13" fill="none" xmlns="http://www.w3.org/2000/svg">
<path d="M4.90004 9.76786C5.52861 9.76786 6.0429 9.25357 6.0429 8.625C6.0429 7.99643 5.52861 7.48214 4.90004 7.48214C4.27147 7.48214 3.75718 7.99643 3.75718 8.625C3.75718 9.25357 4.27147 9.76786 4.90004 9.76786ZM8.32861 4.625H7.75718V3.48214C7.75718 1.905 6.47718 0.625 4.90004 0.625C3.3229 0.625 2.0429 1.905 2.0429 3.48214V4.625H1.47147C0.842899 4.625 0.328613 5.13929 0.328613 5.76786V11.4821C0.328613 12.1107 0.842899 12.625 1.47147 12.625H8.32861C8.95718 12.625 9.47147 12.1107 9.47147 11.4821V5.76786C9.47147 5.13929 8.95718 4.625 8.32861 4.625ZM3.12861 3.48214C3.12861 2.505 3.9229 1.71071 4.90004 1.71071C5.87718 1.71071 6.67147 2.505 6.67147 3.48214V4.625H3.12861V3.48214ZM8.32861 11.4821H1.47147V5.76786H8.32861V11.4821Z" fill="#A1A1A1"/>
</svg>
