<svg width="12" height="14" viewBox="0 0 12 14" fill="none" xmlns="http://www.w3.org/2000/svg">
<path d="M5.83333 10.6667C6.56667 10.6667 7.16667 10.0667 7.16667 9.33333C7.16667 8.6 6.56667 8 5.83333 8C5.1 8 4.5 8.6 4.5 9.33333C4.5 10.0667 5.1 10.6667 5.83333 10.6667ZM9.83333 4.66667H9.16667V3.33333C9.16667 1.49333 7.67333 0 5.83333 0C3.99333 0 2.5 1.49333 2.5 3.33333V4.66667H1.83333C1.1 4.66667 0.5 5.26667 0.5 6V12.6667C0.5 13.4 1.1 14 1.83333 14H9.83333C10.5667 14 11.1667 13.4 11.1667 12.6667V6C11.1667 5.26667 10.5667 4.66667 9.83333 4.66667ZM3.76667 3.33333C3.76667 2.19333 4.69333 1.26667 5.83333 1.26667C6.97333 1.26667 7.9 2.19333 7.9 3.33333V4.66667H3.76667V3.33333ZM9.83333 12.6667H1.83333V6H9.83333V12.6667Z" fill="#A1A1A1"/>
</svg>
