<svg width="121" height="120" viewBox="0 0 121 120" fill="none" xmlns="http://www.w3.org/2000/svg">
<path d="M32.7356 77.4163V34.5415L60.7356 19.6665L88.7356 34.5415V77.4163H32.7356Z" fill="#F4B794" stroke="#F4B794" stroke-width="1.75"/>
<path fill-rule="evenodd" clip-rule="evenodd" d="M32.7354 64.7222C33.7361 64.9494 34.7775 65.0693 35.847 65.0693C41.2649 65.0693 45.964 61.9916 48.2915 57.4893C50.6189 61.9916 55.318 65.0692 60.736 65.0692C66.1539 65.0692 70.853 61.9917 73.1804 57.4893C75.5079 61.9917 80.207 65.0692 85.6249 65.0692C86.6939 65.0692 87.735 64.9494 88.7354 64.7225V71.7774H32.7354V64.7222Z" fill="white"/>
<path d="M32.7354 64.7222L32.929 63.8689L31.8604 63.6264V64.7222H32.7354ZM48.2915 57.4893L49.0687 57.0875L48.2915 55.5838L47.5142 57.0875L48.2915 57.4893ZM73.1804 57.4893L73.9577 57.0875L73.1804 55.5839L72.4031 57.0875L73.1804 57.4893ZM88.7354 64.7225H89.6104V63.6267L88.5418 63.8692L88.7354 64.7225ZM88.7354 71.7774V72.6524H89.6104V71.7774H88.7354ZM32.7354 71.7774H31.8604V72.6524H32.7354V71.7774ZM32.5417 65.5755C33.6055 65.817 34.7119 65.9443 35.847 65.9443V64.1943C34.8431 64.1943 33.8666 64.0817 32.929 63.8689L32.5417 65.5755ZM35.847 65.9443C41.6048 65.9443 46.597 62.6727 49.0687 57.8911L47.5142 57.0875C45.3311 61.3106 40.925 64.1943 35.847 64.1943V65.9443ZM47.5142 57.8911C49.986 62.6727 54.9782 65.9442 60.736 65.9442V64.1942C55.6579 64.1942 51.2519 61.3106 49.0687 57.0875L47.5142 57.8911ZM60.736 65.9442C66.4937 65.9442 71.4859 62.6727 73.9577 57.8911L72.4031 57.0875C70.22 61.3106 65.814 64.1942 60.736 64.1942V65.9442ZM72.4031 57.8911C74.8749 62.6727 79.8671 65.9442 85.6249 65.9442V64.1942C80.5468 64.1942 76.1408 61.3106 73.9577 57.0875L72.4031 57.8911ZM85.6249 65.9442C86.7595 65.9442 87.8655 65.8171 88.9289 65.5758L88.5418 63.8692C87.6045 64.0818 86.6283 64.1942 85.6249 64.1942V65.9442ZM87.8604 64.7225V71.7774H89.6104V64.7225H87.8604ZM88.7354 70.9024H32.7354V72.6524H88.7354V70.9024ZM33.6104 71.7774V64.7222H31.8604V71.7774H33.6104Z" fill="white"/>
<path d="M48.2905 80.3334L48.2905 52.3335" stroke="white" stroke-width="3.11111"/>
<path d="M73.1799 80.3334L73.1799 52.3335" stroke="white" stroke-width="3.11111"/>
<path d="M25.7676 89.7175V99.3295H27.0276V95.2375H31.9596V94.1095L27.0276 94.1215V90.8455H32.4876V89.7175H25.7676ZM36.5834 99.4975C37.8314 99.4975 38.6714 98.8975 39.0194 98.3095V99.3295H40.2554V92.4655H39.0194V93.4855C38.6714 92.8975 37.8314 92.2975 36.5834 92.2975C34.6394 92.2975 33.1874 93.8455 33.1874 95.8975C33.1874 97.9495 34.6394 99.4975 36.5834 99.4975ZM36.6914 98.4055C35.3114 98.4055 34.3994 97.3255 34.3994 95.8975C34.3994 94.4695 35.3114 93.3895 36.6914 93.3895C38.0834 93.3895 39.0434 94.4695 39.0434 95.8975C39.0434 97.3255 38.0834 98.4055 36.6914 98.4055ZM42.1959 92.4655V99.3295H43.4319V95.6215C43.4319 94.3855 44.1879 93.3775 45.2079 93.3775C46.1679 93.3775 46.7799 94.1215 46.7799 95.4055V99.3295H48.0159V95.6335C48.0159 94.3855 48.7599 93.3775 49.7919 93.3775C50.7639 93.3775 51.3639 94.1215 51.3639 95.3575V99.3295H52.5999V95.1535C52.5999 93.4135 51.5439 92.2975 50.0799 92.2975C48.9159 92.2975 48.0519 92.8735 47.6439 93.7375C47.3079 92.8615 46.5279 92.2975 45.5079 92.2975C44.3559 92.2975 43.7439 92.9335 43.4319 93.4375V92.4655H42.1959ZM58.0319 99.4975C59.9759 99.4975 61.4279 97.9495 61.4279 95.8975C61.4279 93.8455 59.9759 92.2975 58.0319 92.2975C56.7839 92.2975 55.9439 92.8975 55.5959 93.4855V89.4175H54.3599V99.3295H55.5959V98.3095C55.9439 98.8975 56.7839 99.4975 58.0319 99.4975ZM57.9239 98.4055C56.5319 98.4055 55.5719 97.3255 55.5719 95.8975C55.5719 94.4695 56.5319 93.3895 57.9239 93.3895C59.3039 93.3895 60.2159 94.4695 60.2159 95.8975C60.2159 97.3255 59.3039 98.4055 57.9239 98.4055ZM63.0084 92.4655V99.3295H64.2444V95.7775C64.2444 94.5295 65.2284 93.4015 66.6324 93.4015C67.0524 93.4015 67.3884 93.4735 67.6524 93.5935V92.4175C67.4124 92.3335 67.1364 92.2975 66.7164 92.2975C65.3724 92.2975 64.5444 93.0055 64.2444 93.5215V92.4655H63.0084ZM69.4915 89.2975C69.0235 89.2975 68.6755 89.6455 68.6755 90.1135C68.6755 90.5815 69.0235 90.9295 69.4915 90.9295C69.9715 90.9295 70.3195 90.5815 70.3195 90.1135C70.3195 89.6455 69.9715 89.2975 69.4915 89.2975ZM70.1155 99.3415V92.4655H68.8795V99.3415H70.1155ZM75.0913 99.4975C76.3393 99.4975 77.1793 98.8975 77.5273 98.3095V99.3295H78.7633V89.4175H77.5273V93.4855C77.1793 92.8975 76.3393 92.2975 75.0913 92.2975C73.1473 92.2975 71.6953 93.8455 71.6953 95.8975C71.6953 97.9495 73.1473 99.4975 75.0913 99.4975ZM75.1993 98.4055C73.8193 98.4055 72.9073 97.3255 72.9073 95.8975C72.9073 94.4695 73.8193 93.3895 75.1993 93.3895C76.5913 93.3895 77.5513 94.4695 77.5513 95.8975C77.5513 97.3255 76.5913 98.4055 75.1993 98.4055ZM84.0637 102.413C86.0317 102.413 87.4117 101.069 87.4117 99.1735V92.4655H86.1757V93.4855C85.8277 92.8975 84.9877 92.2975 83.7397 92.2975C81.7957 92.2975 80.3437 93.8335 80.3437 95.8615C80.3437 97.8775 81.7957 99.4015 83.7397 99.4015C84.9877 99.4015 85.8277 98.8015 86.1757 98.2135V99.1615C86.1757 100.505 85.3117 101.345 84.0637 101.345C82.8277 101.345 82.2157 100.709 82.0717 99.9775H80.8117C81.0517 101.273 82.0957 102.413 84.0637 102.413ZM83.8477 98.3335C82.4677 98.3335 81.5557 97.2655 81.5557 95.8615C81.5557 94.4575 82.4677 93.3895 83.8477 93.3895C85.2397 93.3895 86.1997 94.4575 86.1997 95.8615C86.1997 97.2655 85.2397 98.3335 83.8477 98.3335ZM92.4361 99.4975C94.0081 99.4975 95.2441 98.6455 95.6161 97.4575H94.3561C94.1041 98.0215 93.3721 98.4535 92.4361 98.4535C91.2121 98.4535 90.3601 97.5775 90.2281 96.4015H95.8441C95.8681 96.2335 95.8681 96.0535 95.8681 95.8975C95.8681 93.8335 94.4401 92.2975 92.4361 92.2975C90.4321 92.2975 88.9921 93.8335 88.9921 95.8975C88.9921 97.9615 90.4321 99.4975 92.4361 99.4975ZM94.6561 95.3935H90.2281C90.3601 94.2055 91.2001 93.3415 92.4361 93.3415C93.6721 93.3415 94.5121 94.1935 94.6561 95.3935Z" fill="#F4B794"/>
</svg>
