<svg width="72" height="72" viewBox="0 0 72 72" fill="none" xmlns="http://www.w3.org/2000/svg">
<g filter="url(#filter0_d_122_341)">
<rect x="10" y="10" width="52" height="52" rx="11.5556" fill="#EA6F29"/>
<path d="M18.6665 53.2131V26.6716L35.9998 17.4633L53.3332 26.6716V53.2131H18.6665Z" fill="#FFF3E3" stroke="#FFF3E3" stroke-width="1.08333"/>
<path fill-rule="evenodd" clip-rule="evenodd" d="M18.6666 45.3549C19.286 45.4955 19.9307 45.5697 20.5928 45.5697C23.9467 45.5697 26.8557 43.6645 28.2965 40.8774C29.7373 43.6645 32.6463 45.5697 36.0002 45.5697C39.3541 45.5697 42.2631 43.6646 43.7039 40.8774C45.1447 43.6646 48.0537 45.5697 51.4076 45.5697C52.0694 45.5697 52.7139 45.4955 53.3332 45.355V49.7225H18.6666V45.3549Z" fill="#EA6F29"/>
<path d="M18.6666 45.3549L18.7864 44.8267L18.1249 44.6765V45.3549H18.6666ZM28.2965 40.8774L28.7777 40.6286L28.2965 39.6978L27.8153 40.6286L28.2965 40.8774ZM43.7039 40.8774L44.1851 40.6287L43.7039 39.6979L43.2227 40.6287L43.7039 40.8774ZM53.3332 45.355H53.8749V44.6767L53.2134 44.8268L53.3332 45.355ZM53.3332 49.7225V50.2641H53.8749V49.7225H53.3332ZM18.6666 49.7225H18.1249V50.2641H18.6666V49.7225ZM18.5467 45.8831C19.2052 46.0326 19.8901 46.1114 20.5928 46.1114V45.0281C19.9713 45.0281 19.3669 44.9584 18.7864 44.8267L18.5467 45.8831ZM20.5928 46.1114C24.1571 46.1114 27.2475 44.0861 28.7777 41.1261L27.8153 40.6286C26.4639 43.243 23.7363 45.0281 20.5928 45.0281V46.1114ZM27.8153 41.1261C29.3455 44.0861 32.4359 46.1114 36.0002 46.1114V45.028C32.8567 45.028 30.1291 43.2429 28.7777 40.6286L27.8153 41.1261ZM36.0002 46.1114C39.5645 46.1114 42.6549 44.0861 44.1851 41.1262L43.2227 40.6287C41.8713 43.243 39.1437 45.028 36.0002 45.028V46.1114ZM43.2227 41.1262C44.7529 44.0861 47.8433 46.1114 51.4076 46.1114V45.028C48.2641 45.028 45.5365 43.243 44.1851 40.6287L43.2227 41.1262ZM51.4076 46.1114C52.11 46.1114 52.7947 46.0326 53.4531 45.8833L53.2134 44.8268C52.6331 44.9584 52.0288 45.028 51.4076 45.028V46.1114ZM52.7916 45.355V49.7225H53.8749V45.355H52.7916ZM53.3332 49.1808H18.6666V50.2641H53.3332V49.1808ZM19.2082 49.7225V45.3549H18.1249V49.7225H19.2082Z" fill="#EA6F29"/>
<path d="M28.296 55.0187L28.296 37.6854" stroke="#EA6F29" stroke-width="1.92592"/>
<path d="M43.7037 55.0187L43.7037 37.6854" stroke="#EA6F29" stroke-width="1.92592"/>
</g>
<defs>
<filter id="filter0_d_122_341" x="0" y="0" width="72" height="72" filterUnits="userSpaceOnUse" color-interpolation-filters="sRGB">
<feFlood flood-opacity="0" result="BackgroundImageFix"/>
<feColorMatrix in="SourceAlpha" type="matrix" values="0 0 0 0 0 0 0 0 0 0 0 0 0 0 0 0 0 0 127 0" result="hardAlpha"/>
<feOffset/>
<feGaussianBlur stdDeviation="5"/>
<feComposite in2="hardAlpha" operator="out"/>
<feColorMatrix type="matrix" values="0 0 0 0 0 0 0 0 0 0 0 0 0 0 0 0 0 0 0.1 0"/>
<feBlend mode="normal" in2="BackgroundImageFix" result="effect1_dropShadow_122_341"/>
<feBlend mode="normal" in="SourceGraphic" in2="effect1_dropShadow_122_341" result="shape"/>
</filter>
</defs>
</svg>
