<svg width="8" height="13" viewBox="0 0 8 13" fill="none" xmlns="http://www.w3.org/2000/svg">
<path d="M3.99562 6.19667C2.48229 5.80334 1.99562 5.39667 1.99562 4.76334C1.99562 4.03667 2.66895 3.53001 3.79562 3.53001C4.98229 3.53001 5.42229 4.09667 5.46229 4.93001H6.93562C6.88895 3.78334 6.18895 2.73001 4.79562 2.39001V0.930008H2.79562V2.37001C1.50229 2.65001 0.462285 3.49001 0.462285 4.77667C0.462285 6.31668 1.73562 7.08334 3.59562 7.53001C5.26229 7.93001 5.59562 8.51667 5.59562 9.13667C5.59562 9.59667 5.26895 10.33 3.79562 10.33C2.42229 10.33 1.88229 9.71667 1.80895 8.93001H0.342285C0.422285 10.39 1.51562 11.21 2.79562 11.4833V12.93H4.79562V11.4967C6.09562 11.25 7.12895 10.4967 7.12895 9.13001C7.12895 7.23667 5.50895 6.59001 3.99562 6.19667Z" fill="#A1A1A1"/>
</svg>
