<svg width="27" height="24" viewBox="0 0 27 24" fill="none" xmlns="http://www.w3.org/2000/svg">
<path d="M12.3103 22.3809L12.3093 22.38C8.92734 19.3133 6.17701 16.818 4.26373 14.4788C2.35848 12.1495 1.35649 10.0605 1.35649 7.81846C1.35649 4.17672 4.20822 1.325 7.84996 1.325C9.54517 1.325 11.1946 1.97552 12.451 3.05753C13.1802 3.68554 14.2908 3.68554 15.02 3.05753C16.2764 1.97552 17.9259 1.325 19.6211 1.325C23.2628 1.325 26.1145 4.17672 26.1145 7.81846C26.1145 10.0605 25.1125 12.1495 23.2072 14.4806C21.2964 16.8183 18.551 19.3132 15.1754 22.3807L15.1627 22.3922C15.1625 22.3924 15.1623 22.3926 15.1621 22.3928C14.3553 23.1211 13.1181 23.1163 12.3103 22.3809Z" fill="white" stroke="#A1A1A1" stroke-width="1.4"/>
</svg>
