<svg width="23" height="23" viewBox="0 0 23 23" fill="none" xmlns="http://www.w3.org/2000/svg">
<path d="M7.06252 21.3999L18.5628 9.89962L13.1004 4.43721L1.60011 15.9375C1.44179 16.096 1.32932 16.2944 1.27464 16.5117L0 23L6.48707 21.7254C6.70488 21.6709 6.90412 21.5583 7.06252 21.3999ZM22.2753 6.18707C22.7393 5.72293 23 5.09351 23 4.43721C23 3.78092 22.7393 3.1515 22.2753 2.68736L20.3126 0.724658C19.8485 0.26066 19.2191 0 18.5628 0C17.9065 0 17.2771 0.26066 16.8129 0.724658L14.8502 2.68736L20.3126 8.14977L22.2753 6.18707Z" fill="black" fill-opacity="0.8"/>
</svg>
