<svg width="27" height="24" viewBox="0 0 27 24" fill="none" xmlns="http://www.w3.org/2000/svg">
<path d="M19.8568 8.95838L14.5491 1.00896C14.3188 0.669653 13.9311 0.5 13.5433 0.5C13.1555 0.5 12.7677 0.669653 12.5375 1.02108L7.22982 8.95838H1.4253C0.758811 8.95838 0.213501 9.5037 0.213501 10.1702C0.213501 10.2793 0.225619 10.3883 0.261973 10.4974L3.33994 21.7308C3.61866 22.7487 4.55174 23.5 5.6666 23.5H21.42C22.5348 23.5 23.4679 22.7487 23.7588 21.7308L26.8367 10.4974L26.8731 10.1702C26.8731 9.5037 26.3278 8.95838 25.6613 8.95838H19.8568ZM9.90789 8.95838L13.5433 3.62645L17.1787 8.95838H9.90789ZM13.5433 18.6528C12.2103 18.6528 11.1197 17.5622 11.1197 16.2292C11.1197 14.8962 12.2103 13.8056 13.5433 13.8056C14.8763 13.8056 15.9669 14.8962 15.9669 16.2292C15.9669 17.5622 14.8763 18.6528 13.5433 18.6528Z" fill="#EA6F29"/>
</svg>
