<svg width="37" height="32" viewBox="0 0 37 32" fill="none" xmlns="http://www.w3.org/2000/svg">
<path d="M27.3499 11.8374L20.0499 0.904102C19.7333 0.437435 19.1999 0.204102 18.6666 0.204102C18.1333 0.204102 17.5999 0.437435 17.2833 0.920768L9.98325 11.8374H1.99992C1.08325 11.8374 0.333252 12.5874 0.333252 13.5041C0.333252 13.6541 0.349919 13.8041 0.399919 13.9541L4.63325 29.4041C5.01659 30.8041 6.29992 31.8374 7.83325 31.8374H29.4999C31.0333 31.8374 32.3166 30.8041 32.7166 29.4041L36.9499 13.9541L36.9999 13.5041C36.9999 12.5874 36.2499 11.8374 35.3333 11.8374H27.3499ZM13.6666 11.8374L18.6666 4.5041L23.6666 11.8374H13.6666ZM18.6666 25.1708C16.8333 25.1708 15.3333 23.6708 15.3333 21.8374C15.3333 20.0041 16.8333 18.5041 18.6666 18.5041C20.4999 18.5041 21.9999 20.0041 21.9999 21.8374C21.9999 23.6708 20.4999 25.1708 18.6666 25.1708Z" fill="#636363"/>
</svg>
