<svg width="520" height="521" viewBox="0 0 520 521" fill="none" xmlns="http://www.w3.org/2000/svg">
<rect y="0.589844" width="520" height="520" rx="100" fill="white"/>
<path d="M100 419.687V175.643L259.376 90.9751L418.752 175.643V419.687H100Z" fill="#EA6F29"/>
<path fill-rule="evenodd" clip-rule="evenodd" d="M100.624 341.347C106.32 342.64 112.247 343.322 118.334 343.322C149.174 343.322 175.921 325.804 189.169 300.176C202.417 325.804 229.164 343.322 260.004 343.322C290.842 343.322 317.588 325.805 330.837 300.179C344.085 325.805 370.832 343.322 401.67 343.322C407.755 343.322 413.682 342.64 419.376 341.348V381.507H100.624V341.347Z" fill="white"/>
<path d="M100.624 341.347L101.726 336.49L95.6435 335.11V341.347H100.624ZM189.169 300.176L193.593 297.889L189.169 289.329L184.745 297.889L189.169 300.176ZM330.837 300.179L335.261 297.892L330.837 289.334L326.412 297.892L330.837 300.179ZM419.376 341.348H424.357V335.111L418.274 336.491L419.376 341.348ZM419.376 381.507V386.487H424.357V381.507H419.376ZM100.624 381.507H95.6435V386.487H100.624V381.507ZM99.5218 346.204C105.577 347.579 111.874 348.303 118.334 348.303V338.342C112.621 338.342 107.063 337.701 101.726 336.49L99.5218 346.204ZM118.334 348.303C151.108 348.303 179.524 329.68 193.593 302.463L184.745 297.889C172.319 321.928 147.239 338.342 118.334 338.342V348.303ZM184.745 302.463C198.814 329.68 227.23 348.303 260.004 348.303V338.342C231.099 338.342 206.019 321.928 193.593 297.889L184.745 302.463ZM260.004 348.303C292.776 348.303 321.191 329.682 335.261 302.466L326.412 297.892C313.986 321.929 288.907 338.342 260.004 338.342V348.303ZM326.412 302.466C340.482 329.682 368.897 348.303 401.67 348.303V338.342C372.766 338.342 347.688 321.929 335.261 297.892L326.412 302.466ZM401.67 348.303C408.129 348.303 414.424 347.579 420.478 346.205L418.274 336.491C412.939 337.701 407.382 338.342 401.67 338.342V348.303ZM414.396 341.348V381.507H424.357V341.348H414.396ZM419.376 376.526H100.624V386.487H419.376V376.526ZM105.605 381.507V341.347H95.6435V381.507H105.605Z" fill="white"/>
<path d="M189.787 430.205L189.787 270.829" stroke="white" stroke-width="17.7084"/>
<path d="M331.457 430.205L331.457 270.829" stroke="white" stroke-width="17.7084"/>
</svg>
